# xmcd
#
# Track frame offsets: 
#        150
#        16171
#        32516
#        46086
#        62351
#        81637
#        92452
#        107205
#        122846
#        144567
#        159452
#        174926
#        194714
#        214216
#        224960
#        250362
#        266817
#
# Disc length: 3760 seconds
#
# Revision: 3
# Processed by: cddbd v1.5.2PL0 Copyright (c) Steve Scherf et al.
# Submitted via: ExactAudioCopy v0.99pb5
#
DISCID=fa0eae11
DTITLE=Azyl P - ¯ycie na topie 1983-1988
DYEAR=2005
DGENRE=Hard Rock
TTITLE0=Ju¿ lec¹
TTITLE1=Nocne zjawy
TTITLE2=Marzenia ¿ó³wia (Ucieczka z wiêzienia)
TTITLE3=Nasz jedyny swiat
TTITLE4=Kara smierci
TTITLE5=Ju¿ nie mogê
TTITLE6=Nic wiêcej mi nie trzeba
TTITLE7=I znowu koncert
TTITLE8=Tysi¹c planet
TTITLE9=Och Lila
TTITLE10=Praca i dom
TTITLE11=Daj mi swój znak
TTITLE12=Zwiêd³e kwiaty
TTITLE13=Ma³a Maggie
TTITLE14=Twoje ¿ycie
TTITLE15=Och Alleluja!
TTITLE16=Rock'n'roll biznes
EXTD=
EXTT0=
EXTT1=
EXTT2=
EXTT3=
EXTT4=
EXTT5=
EXTT6=
EXTT7=
EXTT8=
EXTT9=
EXTT10=
EXTT11=
EXTT12=
EXTT13=
EXTT14=
EXTT15=
EXTT16=
PLAYORDER=
